<svg width="10" height="18" viewBox="0 0 10 18" fill="none" xmlns="http://www.w3.org/2000/svg">
<path d="M8.78177 10.3468L8.78186 10.3469L8.78933 10.3384C9.09143 9.99543 9.22495 9.58187 9.22495 9.17743C9.22495 8.74592 9.04954 8.33862 8.76577 8.01647L8.76585 8.01641L8.75891 8.00884L2.84637 1.55868L2.84065 1.55243L2.83471 1.54637C2.50677 1.21129 1.91114 1.10718 1.50485 1.5223C1.18228 1.85188 1.08455 2.43622 1.47474 2.84244L7.30485 9.17743L1.47033 15.5172L1.46227 15.526L1.45462 15.5351C1.14864 15.8998 1.14624 16.4662 1.50485 16.8326L1.5188 16.8468L1.53379 16.86C1.89844 17.1793 2.4707 17.1804 2.83471 16.8085L2.84029 16.8028L2.84568 16.7969L8.78177 10.3468Z" fill="#3056D3" stroke="#3056D3" stroke-width="1.0368"/>
</svg>
