<svg width="71" height="63" viewBox="0 0 71 63" fill="none" xmlns="http://www.w3.org/2000/svg">
<path d="M70.4817 29.966C70.3224 29.7848 66.5068 25.4782 60.3278 21.1337C43.874 9.56489 27.786 9.10075 10.6721 21.1337C4.49315 25.4782 0.677586 29.7848 0.518252 29.966C-0.172751 30.7516 -0.172751 31.9281 0.518252 32.7137C0.677586 32.8949 4.49315 37.2015 10.6722 41.546C27.1259 53.1148 43.214 53.579 60.3279 41.546C66.507 37.2015 70.3224 32.8948 70.4819 32.7137C71.1727 31.9281 71.1727 30.7516 70.4817 29.966ZM50.6078 31.3399C50.6078 39.6258 43.7749 46.269 35.5001 46.269C27.2115 46.269 20.3923 39.6119 20.3923 31.3399C20.3923 23.0539 27.2252 16.4107 35.5001 16.4107C43.7885 16.4107 50.6078 23.0678 50.6078 31.3399ZM4.95686 31.3399C9.06322 27.2363 14.2013 23.3321 19.5764 20.6039C15.1585 27.015 15.073 35.5405 19.5764 42.0758C14.1744 39.334 9.03867 35.4185 4.95686 31.3399ZM51.4235 42.0758C55.8413 35.6648 55.9269 27.1392 51.4235 20.6039C56.8255 23.3457 61.9612 27.2612 66.043 31.3399C61.9454 35.4343 56.8094 39.3422 51.4235 42.0758Z" fill="#3B4F7D"/>
<path d="M37.58 29.2598H38.7985L35.4999 32.5584L32.807 29.8655C31.9955 29.0537 30.6774 29.0532 29.8654 29.8655L25.7408 33.9902C24.9285 34.8025 24.9285 36.1195 25.7408 36.9318C26.553 37.7443 27.8702 37.744 28.6825 36.9318L31.3363 34.2781L34.0291 36.9708C34.8416 37.7831 36.1584 37.7831 36.9708 36.9708L41.7401 32.2014V32.7266C41.7401 33.8754 42.6714 34.8067 43.8202 34.8067C44.969 34.8067 45.9003 33.8754 45.9003 32.7266V27.1797C45.9003 26.031 44.969 25.0996 43.8202 25.0996H37.58C36.4312 25.0996 35.4999 26.031 35.4999 27.1797C35.4999 28.3285 36.4312 29.2598 37.58 29.2598Z" fill="#3B4F7D"/>
<path d="M35.5 8.32032C36.6488 8.32032 37.5801 7.389 37.5801 6.24024V2.08008C37.5801 0.931321 36.6488 0 35.5 0C34.3512 0 33.4199 0.931321 33.4199 2.08008V6.24024C33.4199 7.389 34.3512 8.32032 35.5 8.32032Z" fill="#3B4F7D"/>
<path d="M49.0897 11.9617C50.0803 12.5337 51.3542 12.1998 51.9311 11.2004L54.0112 7.59767C54.5857 6.60284 54.2449 5.33052 53.2499 4.75628C52.2551 4.18163 50.9827 4.52248 50.4085 5.51759L48.3284 9.12029C47.7539 10.1151 48.0948 11.3873 49.0897 11.9617Z" fill="#3B4F7D"/>
<path d="M35.5 54.2207C34.3512 54.2207 33.4199 55.1521 33.4199 56.3008V60.5996C33.4199 61.7484 34.3512 62.6797 35.5 62.6797C36.6488 62.6797 37.5801 61.7484 37.5801 60.5996V56.3008C37.5801 55.1521 36.6488 54.2207 35.5 54.2207Z" fill="#3B4F7D"/>
<path d="M51.8618 51.3592C51.2873 50.3643 50.0152 50.0233 49.0204 50.5979C48.0254 51.1723 47.6846 52.4443 48.2591 53.4393L50.4085 57.1622C50.9847 58.1603 52.258 58.4964 53.2499 57.9236C54.2449 57.3492 54.5857 56.0771 54.0112 55.0822L51.8618 51.3592Z" fill="#3B4F7D"/>
<path d="M19.0687 11.2004C19.6448 12.1984 20.9181 12.5345 21.9101 11.9617C22.905 11.3873 23.2459 10.1151 22.6714 9.12029L20.5913 5.51759C20.0168 4.52248 18.7447 4.18176 17.7499 4.75628C16.7549 5.33066 16.4141 6.60284 16.9886 7.59767L19.0687 11.2004Z" fill="#3B4F7D"/>
<path d="M21.9794 50.598C20.9846 50.0232 19.7122 50.3644 19.138 51.3593L16.9886 55.0822C16.4141 56.0772 16.7549 57.3493 17.7499 57.9236C18.7408 58.4959 20.0145 58.1611 20.5913 57.1623L22.7407 53.4393C23.3152 52.4445 22.9744 51.1723 21.9794 50.598Z" fill="#3B4F7D"/>
</svg>
