<svg width="61" height="61" viewBox="0 0 61 61" fill="none" xmlns="http://www.w3.org/2000/svg">
<g clip-path="url(#clip0_261_2528)">
<path d="M52.1943 32.5636H47.4768C47.9577 33.8801 48.2204 35.3009 48.2204 36.7817V54.6111C48.2204 55.2285 48.1129 55.8211 47.9174 56.3722H55.7165C58.6298 56.3722 60.9999 54.002 60.9999 51.0888V41.3692C61 36.5138 57.0498 32.5636 52.1943 32.5636Z" fill="#253B6E" fill-opacity="0.9"/>
<path d="M12.7796 36.7818C12.7796 35.3008 13.0423 33.8802 13.5232 32.5637H8.8057C3.95023 32.5637 0 36.5139 0 41.3694V51.089C0 54.0023 2.37007 56.3724 5.28342 56.3724H13.0826C12.8871 55.8211 12.7796 55.2286 12.7796 54.6112V36.7818Z" fill="#253B6E" fill-opacity="0.9"/>
<path d="M35.8926 27.9761H25.1077C20.2522 27.9761 16.302 31.9263 16.302 36.7818V54.6112C16.302 55.5838 17.0905 56.3723 18.0631 56.3723H42.9371C43.9098 56.3723 44.6983 55.5839 44.6983 54.6112V36.7818C44.6983 31.9263 40.748 27.9761 35.8926 27.9761Z" fill="#253B6E" fill-opacity="0.9"/>
<path d="M30.5001 4.62744C24.6608 4.62744 19.9102 9.37806 19.9102 15.2175C19.9102 19.1784 22.0963 22.6376 25.3248 24.4538C26.8561 25.3152 28.6215 25.8075 30.5001 25.8075C32.3787 25.8075 34.1442 25.3152 35.6755 24.4538C38.9041 22.6376 41.0901 19.1782 41.0901 15.2175C41.0901 9.37818 36.3394 4.62744 30.5001 4.62744Z" fill="#253B6E" fill-opacity="0.9"/>
<path d="M11.9043 14.4981C7.53716 14.4981 3.98438 18.0509 3.98438 22.418C3.98438 26.7851 7.53716 30.3379 11.9043 30.3379C13.012 30.3379 14.0669 30.1085 15.0252 29.696C16.6819 28.9827 18.048 27.72 18.8933 26.1384C19.4866 25.0284 19.8242 23.7621 19.8242 22.418C19.8242 18.051 16.2714 14.4981 11.9043 14.4981Z" fill="#253B6E" fill-opacity="0.9"/>
<path d="M49.0959 14.4981C44.7288 14.4981 41.176 18.0509 41.176 22.418C41.176 23.7622 41.5136 25.0285 42.1069 26.1384C42.9522 27.7202 44.3182 28.9828 45.975 29.696C46.9333 30.1085 47.9881 30.3379 49.0959 30.3379C53.463 30.3379 57.0158 26.7851 57.0158 22.418C57.0158 18.0509 53.463 14.4981 49.0959 14.4981Z" fill="#253B6E" fill-opacity="0.9"/>
</g>
<defs>
<clipPath id="clip0_261_2528">
<rect width="61" height="61" fill="white"/>
</clipPath>
</defs>
</svg>
