<svg width="19" height="19" viewBox="0 0 19 19" fill="none" xmlns="http://www.w3.org/2000/svg">
<path d="M18.151 6.06847C18.1089 5.11187 17.9542 4.45422 17.7326 3.88436C17.504 3.27946 17.1523 2.7379 16.6915 2.2877C16.2413 1.83049 15.6961 1.47522 15.0983 1.25018C14.5251 1.02859 13.8709 0.873894 12.9143 0.831717C11.9505 0.785969 11.6446 0.775391 9.20028 0.775391C6.75597 0.775391 6.45002 0.785969 5.48985 0.828146C4.53326 0.870322 3.87561 1.02515 3.30588 1.24661C2.70085 1.47522 2.15929 1.82692 1.70908 2.2877C1.25188 2.7379 0.896741 3.28303 0.671571 3.88092C0.449973 4.45422 0.295281 5.1083 0.253104 6.06489C0.207356 7.02863 0.196777 7.33458 0.196777 9.77889C0.196777 12.2232 0.207356 12.5292 0.249532 13.4893C0.291709 14.4459 0.446539 15.1036 0.668137 15.6734C0.896741 16.2783 1.25188 16.8199 1.70908 17.2701C2.15929 17.7273 2.70442 18.0826 3.30231 18.3076C3.87561 18.5292 4.52969 18.6839 5.48642 18.7261C6.44645 18.7684 6.75254 18.7788 9.19685 18.7788C11.6412 18.7788 11.9471 18.7684 12.9073 18.7261C13.8639 18.6839 14.5215 18.5292 15.0912 18.3076C16.3012 17.8398 17.2578 16.8832 17.7256 15.6734C17.947 15.1001 18.1018 14.4459 18.144 13.4893C18.1862 12.5292 18.1968 12.2232 18.1968 9.77889C18.1968 7.33458 18.1932 7.02863 18.151 6.06847ZM16.5298 13.419C16.491 14.2982 16.3433 14.773 16.2203 15.0896C15.9177 15.8739 15.2953 16.4964 14.5109 16.7989C14.1944 16.922 13.7162 17.0696 12.8404 17.1083C11.8908 17.1506 11.606 17.161 9.20385 17.161C6.80172 17.161 6.51335 17.1506 5.5672 17.1083C4.68795 17.0696 4.21316 16.922 3.89663 16.7989C3.50632 16.6546 3.15105 16.426 2.86269 16.1271C2.56374 15.8351 2.33514 15.4834 2.19089 15.0931C2.06779 14.7766 1.9201 14.2982 1.8815 13.4226C1.83919 12.473 1.82874 12.188 1.82874 9.7859C1.82874 7.38377 1.83919 7.0954 1.8815 6.14938C1.9201 5.27014 2.06779 4.79534 2.19089 4.47881C2.33514 4.08837 2.56374 3.73324 2.86626 3.44473C3.15806 3.14579 3.50976 2.91718 3.9002 2.77307C4.21673 2.64998 4.69509 2.50229 5.57077 2.46355C6.52036 2.42137 6.80529 2.41079 9.20729 2.41079C11.613 2.41079 11.8978 2.42137 12.8439 2.46355C13.7232 2.50229 14.198 2.64998 14.5145 2.77307C14.9048 2.91718 15.2601 3.14579 15.5485 3.44473C15.8474 3.73667 16.076 4.08837 16.2203 4.47881C16.3433 4.79534 16.491 5.27357 16.5298 6.14938C16.572 7.09897 16.5825 7.38377 16.5825 9.7859C16.5825 12.188 16.572 12.4694 16.5298 13.419Z" fill="#20363C"/>
<path d="M9.20029 5.15405C6.64703 5.15405 4.57544 7.22551 4.57544 9.7789C4.57544 12.3323 6.64703 14.4037 9.20029 14.4037C11.7537 14.4037 13.8251 12.3323 13.8251 9.7789C13.8251 7.22551 11.7537 5.15405 9.20029 5.15405ZM9.20029 12.7789C7.54386 12.7789 6.20026 11.4355 6.20026 9.7789C6.20026 8.12234 7.54386 6.77888 9.20029 6.77888C10.8568 6.77888 12.2003 8.12234 12.2003 9.7789C12.2003 11.4355 10.8568 12.7789 9.20029 12.7789Z" fill="#20363C"/>
<path d="M15.0877 4.97129C15.0877 5.56753 14.6043 6.05098 14.0079 6.05098C13.4117 6.05098 12.9282 5.56753 12.9282 4.97129C12.9282 4.37491 13.4117 3.8916 14.0079 3.8916C14.6043 3.8916 15.0877 4.37491 15.0877 4.97129Z" fill="#20363C"/>
</svg>
