<svg width="18" height="19" viewBox="0 0 18 19" fill="none" xmlns="http://www.w3.org/2000/svg">
<path d="M17.9955 18.7753L18 18.7746V12.1731C18 8.94356 17.3047 6.45581 13.5292 6.45581C11.7142 6.45581 10.4962 7.45181 9.99895 8.39606H9.94645V6.75731H6.3667V18.7746H10.0942V12.8241C10.0942 11.2573 10.3912 9.74231 12.3314 9.74231C14.2432 9.74231 14.2717 11.5303 14.2717 12.9246V18.7753H17.9955Z" fill="#20363C"/>
<path d="M0.297119 6.75806H4.02912V18.7753H0.297119V6.75806Z" fill="#20363C"/>
<path d="M2.1615 0.775391C0.96825 0.775391 0 1.74364 0 2.93689C0 4.13014 0.96825 5.11864 2.1615 5.11864C3.35475 5.11864 4.323 4.13014 4.323 2.93689C4.32225 1.74364 3.354 0.775391 2.1615 0.775391Z" fill="#20363C"/>
</svg>
