<svg width="18" height="25" viewBox="0 0 18 25" fill="none" xmlns="http://www.w3.org/2000/svg">
<path d="M9 0.775391C4.038 0.775391 0 4.84139 0 9.84039C0 16.9434 8.154 24.2774 8.501 24.5854C8.644 24.7124 8.822 24.7754 9 24.7754C9.178 24.7754 9.356 24.7124 9.499 24.5864C9.846 24.2774 18 16.9434 18 9.84039C18 4.84139 13.962 0.775391 9 0.775391ZM9 14.7754C6.243 14.7754 4 12.5324 4 9.77539C4 7.01839 6.243 4.77539 9 4.77539C11.757 4.77539 14 7.01839 14 9.77539C14 12.5324 11.757 14.7754 9 14.7754Z" fill="#20363C"/>
</svg>
