<svg width="18" height="19" viewBox="0 0 18 19" fill="none" xmlns="http://www.w3.org/2000/svg">
<path d="M17.528 14.0134L15.0108 11.4961C14.1117 10.5971 12.5834 10.9568 12.2238 12.1254C11.9541 12.9346 11.0551 13.3841 10.246 13.2043C8.44795 12.7548 6.02061 10.4173 5.57111 8.52939C5.3014 7.72024 5.84081 6.82122 6.64992 6.55155C7.81864 6.19195 8.17825 4.66363 7.27923 3.76461L4.76199 1.24737C4.04278 0.618063 2.96397 0.618063 2.33466 1.24737L0.626529 2.9555C-1.0816 4.75353 0.806332 9.5183 5.0317 13.7437C9.25706 17.969 14.0218 19.9469 15.8199 18.1488L17.528 16.4407C18.1573 15.7215 18.1573 14.6427 17.528 14.0134Z" fill="#E3ECFF"/>
</svg>
