<svg width="18" height="16" viewBox="0 0 18 16" fill="none" xmlns="http://www.w3.org/2000/svg">
<path d="M18 2.19427C17.3306 2.48789 16.6174 2.68252 15.8737 2.77702C16.6388 2.32027 17.2226 1.60252 17.4971 0.737391C16.7839 1.16264 15.9964 1.46302 15.1571 1.63064C14.4799 0.909516 13.5146 0.462891 12.4616 0.462891C10.4186 0.462891 8.77387 2.12114 8.77387 4.15402C8.77387 4.44652 8.79862 4.72777 8.85938 4.99552C5.7915 4.84589 3.07687 3.37552 1.25325 1.13564C0.934875 1.68802 0.748125 2.32027 0.748125 3.00089C0.748125 4.27889 1.40625 5.41177 2.38725 6.06764C1.79437 6.05639 1.21275 5.88427 0.72 5.61314C0.72 5.62439 0.72 5.63902 0.72 5.65364C0.72 7.44689 1.99912 8.93639 3.6765 9.27952C3.37612 9.36164 3.04875 9.40102 2.709 9.40102C2.47275 9.40102 2.23425 9.38752 2.01038 9.33802C2.4885 10.7994 3.84525 11.8738 5.4585 11.9086C4.203 12.8908 2.60888 13.4825 0.883125 13.4825C0.5805 13.4825 0.29025 13.469 0 13.4319C1.63462 14.486 3.57188 15.0879 5.661 15.0879C12.4515 15.0879 16.164 9.46289 16.164 4.58714C16.164 4.42402 16.1584 4.26652 16.1505 4.11014C16.8829 3.59039 17.4982 2.94127 18 2.19427Z" fill="#20363C"/>
</svg>
